<svg id="visual" viewBox="0 0 960 300" width="960" height="300" xmlns="http://www.w3.org/2000/svg" xmlns:xlink="http://www.w3.org/1999/xlink" version="1.1"><rect x="0" y="0" width="960" height="300" fill="#0e101b"></rect><path d="M0 145L13.3 141.2C26.7 137.3 53.3 129.7 80 130C106.7 130.3 133.3 138.7 160 134.7C186.7 130.7 213.3 114.3 240 106.2C266.7 98 293.3 98 320 101.5C346.7 105 373.3 112 400 118.8C426.7 125.7 453.3 132.3 480 133.2C506.7 134 533.3 129 560 123C586.7 117 613.3 110 640 107.8C666.7 105.7 693.3 108.3 720 114.7C746.7 121 773.3 131 800 134.7C826.7 138.3 853.3 135.7 880 129.2C906.7 122.7 933.3 112.3 946.7 107.2L960 102L960 0L946.7 0C933.3 0 906.7 0 880 0C853.3 0 826.7 0 800 0C773.3 0 746.7 0 720 0C693.3 0 666.7 0 640 0C613.3 0 586.7 0 560 0C533.3 0 506.7 0 480 0C453.3 0 426.7 0 400 0C373.3 0 346.7 0 320 0C293.3 0 266.7 0 240 0C213.3 0 186.7 0 160 0C133.3 0 106.7 0 80 0C53.3 0 26.7 0 13.3 0L0 0Z" fill="#b4a1d9"></path><path d="M0 114L13.3 112C26.7 110 53.3 106 80 102C106.7 98 133.3 94 160 94.8C186.7 95.7 213.3 101.3 240 100.7C266.7 100 293.3 93 320 93.7C346.7 94.3 373.3 102.7 400 103C426.7 103.3 453.3 95.7 480 97.2C506.7 98.7 533.3 109.3 560 113C586.7 116.7 613.3 113.3 640 113C666.7 112.7 693.3 115.3 720 117.8C746.7 120.3 773.3 122.7 800 118.3C826.7 114 853.3 103 880 102.5C906.7 102 933.3 112 946.7 117L960 122L960 0L946.7 0C933.3 0 906.7 0 880 0C853.3 0 826.7 0 800 0C773.3 0 746.7 0 720 0C693.3 0 666.7 0 640 0C613.3 0 586.7 0 560 0C533.3 0 506.7 0 480 0C453.3 0 426.7 0 400 0C373.3 0 346.7 0 320 0C293.3 0 266.7 0 240 0C213.3 0 186.7 0 160 0C133.3 0 106.7 0 80 0C53.3 0 26.7 0 13.3 0L0 0Z" fill="#ab95d4"></path><path d="M0 81L13.3 80C26.7 79 53.3 77 80 78.3C106.7 79.7 133.3 84.3 160 86.3C186.7 88.3 213.3 87.7 240 88.5C266.7 89.3 293.3 91.7 320 92.2C346.7 92.7 373.3 91.3 400 92.8C426.7 94.3 453.3 98.7 480 98.7C506.7 98.7 533.3 94.3 560 88.8C586.7 83.3 613.3 76.7 640 74.5C666.7 72.3 693.3 74.7 720 79.8C746.7 85 773.3 93 800 91.3C826.7 89.7 853.3 78.3 880 76.2C906.7 74 933.3 81 946.7 84.5L960 88L960 0L946.7 0C933.3 0 906.7 0 880 0C853.3 0 826.7 0 800 0C773.3 0 746.7 0 720 0C693.3 0 666.7 0 640 0C613.3 0 586.7 0 560 0C533.3 0 506.7 0 480 0C453.3 0 426.7 0 400 0C373.3 0 346.7 0 320 0C293.3 0 266.7 0 240 0C213.3 0 186.7 0 160 0C133.3 0 106.7 0 80 0C53.3 0 26.7 0 13.3 0L0 0Z" fill="#a188cf"></path><path d="M0 73L13.3 72.2C26.7 71.3 53.3 69.7 80 72C106.7 74.3 133.3 80.7 160 80.7C186.7 80.7 213.3 74.3 240 70.2C266.7 66 293.3 64 320 62C346.7 60 373.3 58 400 61C426.7 64 453.3 72 480 76.8C506.7 81.7 533.3 83.3 560 83.3C586.7 83.3 613.3 81.7 640 81.7C666.7 81.7 693.3 83.3 720 83.8C746.7 84.3 773.3 83.7 800 81.5C826.7 79.3 853.3 75.7 880 74.5C906.7 73.3 933.3 74.7 946.7 75.3L960 76L960 0L946.7 0C933.3 0 906.7 0 880 0C853.3 0 826.7 0 800 0C773.3 0 746.7 0 720 0C693.3 0 666.7 0 640 0C613.3 0 586.7 0 560 0C533.3 0 506.7 0 480 0C453.3 0 426.7 0 400 0C373.3 0 346.7 0 320 0C293.3 0 266.7 0 240 0C213.3 0 186.7 0 160 0C133.3 0 106.7 0 80 0C53.3 0 26.7 0 13.3 0L0 0Z" fill="#987cca"></path><path d="M0 45L13.3 45.7C26.7 46.3 53.3 47.7 80 49.7C106.7 51.7 133.3 54.3 160 57.5C186.7 60.7 213.3 64.3 240 66.5C266.7 68.7 293.3 69.3 320 67.3C346.7 65.3 373.3 60.7 400 55.5C426.7 50.3 453.3 44.7 480 42.5C506.7 40.3 533.3 41.7 560 46.8C586.7 52 613.3 61 640 62.8C666.7 64.7 693.3 59.3 720 56.8C746.7 54.3 773.3 54.7 800 56.8C826.7 59 853.3 63 880 65.8C906.7 68.7 933.3 70.3 946.7 71.2L960 72L960 0L946.7 0C933.3 0 906.7 0 880 0C853.3 0 826.7 0 800 0C773.3 0 746.7 0 720 0C693.3 0 666.7 0 640 0C613.3 0 586.7 0 560 0C533.3 0 506.7 0 480 0C453.3 0 426.7 0 400 0C373.3 0 346.7 0 320 0C293.3 0 266.7 0 240 0C213.3 0 186.7 0 160 0C133.3 0 106.7 0 80 0C53.3 0 26.7 0 13.3 0L0 0Z" fill="#8e70c5"></path><path d="M0 52L13.3 48C26.7 44 53.3 36 80 35C106.7 34 133.3 40 160 39.8C186.7 39.7 213.3 33.3 240 34C266.7 34.7 293.3 42.3 320 43.8C346.7 45.3 373.3 40.7 400 39.7C426.7 38.7 453.3 41.3 480 43C506.7 44.7 533.3 45.3 560 46.3C586.7 47.3 613.3 48.7 640 47.2C666.7 45.7 693.3 41.3 720 41.5C746.7 41.7 773.3 46.3 800 47C826.7 47.7 853.3 44.3 880 44.3C906.7 44.3 933.3 47.7 946.7 49.3L960 51L960 0L946.7 0C933.3 0 906.7 0 880 0C853.3 0 826.7 0 800 0C773.3 0 746.7 0 720 0C693.3 0 666.7 0 640 0C613.3 0 586.7 0 560 0C533.3 0 506.7 0 480 0C453.3 0 426.7 0 400 0C373.3 0 346.7 0 320 0C293.3 0 266.7 0 240 0C213.3 0 186.7 0 160 0C133.3 0 106.7 0 80 0C53.3 0 26.7 0 13.3 0L0 0Z" fill="#8564c0"></path><path d="M0 16L13.3 17.8C26.7 19.7 53.3 23.3 80 24.2C106.7 25 133.3 23 160 22C186.7 21 213.3 21 240 21.2C266.7 21.3 293.3 21.7 320 20.2C346.7 18.7 373.3 15.3 400 16C426.7 16.7 453.3 21.3 480 22.7C506.7 24 533.3 22 560 21.3C586.7 20.7 613.3 21.3 640 22.7C666.7 24 693.3 26 720 27C746.7 28 773.3 28 800 26.5C826.7 25 853.3 22 880 19.3C906.7 16.7 933.3 14.3 946.7 13.2L960 12L960 0L946.7 0C933.3 0 906.7 0 880 0C853.3 0 826.7 0 800 0C773.3 0 746.7 0 720 0C693.3 0 666.7 0 640 0C613.3 0 586.7 0 560 0C533.3 0 506.7 0 480 0C453.3 0 426.7 0 400 0C373.3 0 346.7 0 320 0C293.3 0 266.7 0 240 0C213.3 0 186.7 0 160 0C133.3 0 106.7 0 80 0C53.3 0 26.7 0 13.3 0L0 0Z" fill="#0e101b"></path></svg>